<svg width="44" height="46" viewBox="0 0 44 46" fill="none" xmlns="http://www.w3.org/2000/svg">
<path d="M43.6496 2.92005L43.3715 0L40.5905 0.927C35.8244 2.58296 30.7348 3.09112 25.7353 2.4102C20.4819 1.59493 15.1048 2.31939 10.2544 4.49595C7.68311 5.59085 5.4265 7.31152 3.69005 9.50131C1.95359 11.6911 0.792454 14.2805 0.312346 17.0336C-0.310183 20.5903 0.00124928 24.2476 1.21617 27.6478C1.99845 25.8821 2.91259 24.1777 3.95082 22.5493C6.30587 19.0842 9.56909 16.3342 13.3831 14.6003C17.0573 12.9227 21.0734 12.129 25.1096 12.2828C21.2672 12.8702 17.5893 14.2514 14.3101 16.3384C12.7283 17.3322 11.2798 18.5238 9.9995 19.8842C8.77508 21.2439 7.69549 22.7274 6.77818 24.3106C5.05518 27.62 3.82919 31.1652 3.1397 34.832C2.3965 38.5107 1.99311 42.2499 1.9346 46.0024H6.5696C6.78744 42.637 7.24437 39.2914 7.93693 35.9908C11.1523 37.7271 14.7581 38.6126 18.412 38.5632C21.8199 38.5609 25.1926 37.8753 28.3309 36.547C45.9671 29.0151 43.6496 3.96293 43.6496 2.92005Z" fill="white"/>
</svg>
